# xmcd
#
# Track frame offsets:
#	150
#	20271
#	38978
#	55881
#	76497
#	95944
#	118889
#	141274
#	158990
#	176888
#	191350
#	211348
#	230231
#
# Disc length: 3203 seconds
#
# Revision: 2
# Processed by: cddbd v1.5.1PL0 Copyright (c) Steve Scherf et al.
# Submitted via: audiograbber 1.82.02
#
DISCID=bf0c810d
DTITLE=Special Patrol - The Golden Mean
DYEAR=2004
DGENRE=Rock
TTITLE0=My Sweet Jewel
TTITLE1=Paint Your Name
TTITLE2=Outskirts Of Town
TTITLE3=Enough Already
TTITLE4=Small Talk
TTITLE5=Love That Holds Me To Ransom
TTITLE6=My God The Gossip
TTITLE7=Your Feet
TTITLE8=The Coast
TTITLE9=Chin Up Cynical Tim
TTITLE10=Nothing's Wrong Anyway
TTITLE11=I Don't Mind
TTITLE12=You Make My Life Complete
EXTD=
EXTT0=
EXTT1=
EXTT2=
EXTT3=
EXTT4=
EXTT5=
EXTT6=
EXTT7=
EXTT8=
EXTT9=
EXTT10=
EXTT11=
EXTT12=
PLAYORDER=
